<svg xmlns="http://www.w3.org/2000/svg" width="14" height="14" viewBox="0 0 14 14"><defs><clipPath id="i7pwa"><path fill="#fff" d="M7 0a7 7 0 1 1 0 14A7 7 0 0 1 7 0z"/></clipPath></defs><g><g><path fill="#fff" d="M7 0a7 7 0 1 1 0 14A7 7 0 0 1 7 0z"/><path fill="none" stroke="#555" stroke-linecap="round" stroke-linejoin="round" stroke-miterlimit="50" stroke-width="4" d="M7 0a7 7 0 1 1 0 14A7 7 0 0 1 7 0z" clip-path="url(&quot;#i7pwa&quot;)"/></g><g><path d="M7 4a3 3 0 1 1 0 6 3 3 0 0 1 0-6z"/></g></g></svg>